dataset
version=1
nRows=16
nColumns=39
inDegrees=no
endheader
time	sternoclavicular_r2	sternoclavicular_r3	unrotscap_r3	unrotscap_r2	acromioclavicular_r2	acromioclavicular_r3	acromioclavicular_r1	unrothum_r1	unrothum_r3	unrothum_r2	elv_angle	shoulder_elv	shoulder1_r2	shoulder_rot	elbow_flexion	pro_sup	deviation	flexion	cmc_abduction	cmc_flexion	mp_flexion	ip_flexion	mcp2_flexion	mcp2_abduction	pm2_flexion	md2_flexion	mcp3_flexion	mcp3_abduction	pm3_flexion	md3_flexion	mcp4_flexion	mcp4_abduction	pm4_flexion	md4_flexion	mcp5_flexion	mcp5_abduction	pm5_flexion	md5_flexion
1.745000	-0.030212	-0.274617	0.113126	0.111565	0.079306	0.159379	-0.040029	-0.044091	0.145628	0.108203	0.124227	0.027437	0.146525	0.146525	2.182686	1.226137	0.000000	0.000000	0.000000	0.000000	0.000000	0.000000	0.000000	0.000000	0.000000	0.000000	0.000000	0.000000	0.000000	0.000000	0.000000	0.000000	0.000000	0.000000	0.000000	0.000000	0.000000	0.000000
1.750000	-0.030353	-0.274546	0.112851	0.111383	0.078929	0.160320	-0.039110	-0.042377	0.145876	0.107269	0.123727	0.027437	0.146525	0.146525	2.186751	1.226567	0.000000	0.000000	0.000000	0.000000	0.000000	0.000000	0.000000	0.000000	0.000000	0.000000	0.000000	0.000000	0.000000	0.000000	0.000000	0.000000	0.000000	0.000000	0.000000	0.000000	0.000000	0.000000
1.755000	-0.030491	-0.274491	0.112589	0.111211	0.078564	0.161249	-0.038212	-0.040664	0.146104	0.106350	0.123234	0.027437	0.146525	0.146525	2.190714	1.227004	0.000000	0.000000	0.000000	0.000000	0.000000	0.000000	0.000000	0.000000	0.000000	0.000000	0.000000	0.000000	0.000000	0.000000	0.000000	0.000000	0.000000	0.000000	0.000000	0.000000	0.000000	0.000000
1.760000	-0.030624	-0.274452	0.112339	0.111049	0.078211	0.162167	-0.037337	-0.038955	0.146311	0.105446	0.122749	0.027437	0.146525	0.146525	2.194580	1.227446	0.000000	0.000000	0.000000	0.000000	0.000000	0.000000	0.000000	0.000000	0.000000	0.000000	0.000000	0.000000	0.000000	0.000000	0.000000	0.000000	0.000000	0.000000	0.000000	0.000000	0.000000	0.000000
1.765000	-0.030754	-0.274429	0.112101	0.110896	0.077871	0.163072	-0.036482	-0.037249	0.146498	0.104558	0.122271	0.027437	0.146525	0.146525	2.198352	1.227893	0.000000	0.000000	0.000000	0.000000	0.000000	0.000000	0.000000	0.000000	0.000000	0.000000	0.000000	0.000000	0.000000	0.000000	0.000000	0.000000	0.000000	0.000000	0.000000	0.000000	0.000000	0.000000
1.770000	-0.030880	-0.274421	0.111875	0.110752	0.077542	0.163964	-0.035648	-0.035549	0.146666	0.103685	0.121800	0.027437	0.146525	0.146525	2.202035	1.228346	0.000000	0.000000	0.000000	0.000000	0.000000	0.000000	0.000000	0.000000	0.000000	0.000000	0.000000	0.000000	0.000000	0.000000	0.000000	0.000000	0.000000	0.000000	0.000000	0.000000	0.000000	0.000000
1.775000	-0.031002	-0.274426	0.111658	0.110618	0.077226	0.164843	-0.034835	-0.033855	0.146815	0.102827	0.121338	0.027437	0.146525	0.146525	2.205632	1.228804	0.000000	0.000000	0.000000	0.000000	0.000000	0.000000	0.000000	0.000000	0.000000	0.000000	0.000000	0.000000	0.000000	0.000000	0.000000	0.000000	0.000000	0.000000	0.000000	0.000000	0.000000	0.000000
1.780000	-0.031120	-0.274445	0.111452	0.110492	0.076921	0.165709	-0.034042	-0.032168	0.146945	0.101985	0.120883	0.027437	0.146525	0.146525	2.209147	1.229266	0.000000	0.000000	0.000000	0.000000	0.000000	0.000000	0.000000	0.000000	0.000000	0.000000	0.000000	0.000000	0.000000	0.000000	0.000000	0.000000	0.000000	0.000000	0.000000	0.000000	0.000000	0.000000
1.785000	-0.031233	-0.274476	0.111255	0.110376	0.076628	0.166560	-0.033267	-0.030489	0.147058	0.101158	0.120436	0.027437	0.146525	0.146525	2.212584	1.229733	0.000000	0.000000	0.000000	0.000000	0.000000	0.000000	0.000000	0.000000	0.000000	0.000000	0.000000	0.000000	0.000000	0.000000	0.000000	0.000000	0.000000	0.000000	0.000000	0.000000	0.000000	0.000000
1.790000	-0.031343	-0.274519	0.111067	0.110267	0.076347	0.167397	-0.032512	-0.028819	0.147153	0.100348	0.119997	0.027437	0.146525	0.146525	2.215945	1.230205	0.000000	0.000000	0.000000	0.000000	0.000000	0.000000	0.000000	0.000000	0.000000	0.000000	0.000000	0.000000	0.000000	0.000000	0.000000	0.000000	0.000000	0.000000	0.000000	0.000000	0.000000	0.000000
1.795000	-0.031449	-0.274572	0.110886	0.110167	0.076077	0.168219	-0.031776	-0.027158	0.147232	0.099553	0.119566	0.027437	0.146525	0.146525	2.219235	1.230680	0.000000	0.000000	0.000000	0.000000	0.000000	0.000000	0.000000	0.000000	0.000000	0.000000	0.000000	0.000000	0.000000	0.000000	0.000000	0.000000	0.000000	0.000000	0.000000	0.000000	0.000000	0.000000
1.800000	-0.031551	-0.274636	0.110713	0.110076	0.075818	0.169026	-0.031057	-0.025507	0.147293	0.098774	0.119143	0.027437	0.146525	0.146525	2.222456	1.231159	0.000000	0.000000	0.000000	0.000000	0.000000	0.000000	0.000000	0.000000	0.000000	0.000000	0.000000	0.000000	0.000000	0.000000	0.000000	0.000000	0.000000	0.000000	0.000000	0.000000	0.000000	0.000000
1.805000	-0.031650	-0.274709	0.110546	0.109992	0.075571	0.169817	-0.030355	-0.023866	0.147339	0.098011	0.118728	0.027437	0.146525	0.146525	2.225612	1.231642	0.000000	0.000000	0.000000	0.000000	0.000000	0.000000	0.000000	0.000000	0.000000	0.000000	0.000000	0.000000	0.000000	0.000000	0.000000	0.000000	0.000000	0.000000	0.000000	0.000000	0.000000	0.000000
1.810000	-0.031744	-0.274790	0.110385	0.109915	0.075334	0.170593	-0.029670	-0.022237	0.147370	0.097263	0.118320	0.027437	0.146525	0.146525	2.228706	1.232128	0.000000	0.000000	0.000000	0.000000	0.000000	0.000000	0.000000	0.000000	0.000000	0.000000	0.000000	0.000000	0.000000	0.000000	0.000000	0.000000	0.000000	0.000000	0.000000	0.000000	0.000000	0.000000
1.815000	-0.031835	-0.274878	0.110229	0.109847	0.075109	0.171353	-0.029001	-0.020619	0.147385	0.096531	0.117921	0.027437	0.146525	0.146525	2.231742	1.232617	0.000000	0.000000	0.000000	0.000000	0.000000	0.000000	0.000000	0.000000	0.000000	0.000000	0.000000	0.000000	0.000000	0.000000	0.000000	0.000000	0.000000	0.000000	0.000000	0.000000	0.000000	0.000000
1.820000	-0.031923	-0.274973	0.110078	0.109785	0.074894	0.172097	-0.028347	-0.019014	0.147385	0.095815	0.117530	0.027437	0.146525	0.146525	2.234721	1.233109	0.000000	0.000000	0.000000	0.000000	0.000000	0.000000	0.000000	0.000000	0.000000	0.000000	0.000000	0.000000	0.000000	0.000000	0.000000	0.000000	0.000000	0.000000	0.000000	0.000000	0.000000	0.000000
